<svg width="400" height="400" viewBox="0 0 1991 2456" fill="none" xmlns="http://www.w3.org/2000/svg">
<path d="M143 1019C143 829.566 296.566 676 486 676H1522C1702.6 676 1849 822.403 1849 1003V2456H143V1019Z" fill="#A90C0C"/>
<mask id="path-2-inside-1_603_41" fill="white">
<path d="M741 1880H1309V2456H741V1880Z"/>
</mask>
<path d="M741 1880H1309V2456H741V1880Z" fill="#D10B0B"/>
<path d="M741 1880V1857H718V1880H741ZM1309 1880H1332V1857H1309V1880ZM741 1903H1309V1857H741V1903ZM1286 1880V2456H1332V1880H1286ZM764 2456V1880H718V2456H764Z" fill="white" mask="url(#path-2-inside-1_603_41)"/>
<mask id="path-4-inside-2_603_41" fill="white">
<path d="M1333 1156H1693V1494H1333V1156Z"/>
</mask>
<path d="M1333 1156H1693V1494H1333V1156Z" fill="#A52A2A"/>
<path d="M1333 1156V1133H1310V1156H1333ZM1693 1156H1716V1133H1693V1156ZM1693 1494V1517H1716V1494H1693ZM1333 1494H1310V1517H1333V1494ZM1333 1179H1693V1133H1333V1179ZM1670 1156V1494H1716V1156H1670ZM1693 1471H1333V1517H1693V1471ZM1356 1494V1156H1310V1494H1356Z" fill="white" mask="url(#path-4-inside-2_603_41)"/>
<path d="M995.5 0L1857.63 867H133.372L995.5 0Z" fill="#A5652A"/>
<path d="M988.5 2238C988.5 2273.71 964.122 2300.5 936.5 2300.5C908.878 2300.5 884.5 2273.71 884.5 2238C884.5 2202.29 908.878 2175.5 936.5 2175.5C964.122 2175.5 988.5 2202.29 988.5 2238Z" fill="#D10B0B" stroke="black" stroke-width="15"/>
<path d="M1192.5 2238C1192.5 2273.71 1168.12 2300.5 1140.5 2300.5C1112.88 2300.5 1088.5 2273.71 1088.5 2238C1088.5 2202.29 1112.88 2175.5 1140.5 2175.5C1168.12 2175.5 1192.5 2202.29 1192.5 2238Z" fill="#D10B0B" stroke="black" stroke-width="15"/>
<line x1="1036.5" y1="1880" x2="1036.5" y2="2456" stroke="white" stroke-width="23"/>
<line x1="1523" y1="1156" x2="1523" y2="1474" stroke="white" stroke-width="20"/>
<line x1="1693" y1="1325" x2="1333" y2="1325" stroke="white" stroke-width="20"/>
<line x1="1693.5" y1="1166" x2="1693.5" y2="1484" stroke="black"/>
</svg>
